<?xml version="1.0" standalone="no"?>
<!DOCTYPE svg PUBLIC "-//W3C//DTD SVG 20010904//EN"
 "http://www.w3.org/TR/2001/REC-SVG-20010904/DTD/svg10.dtd">
<svg version="1.0" xmlns="http://www.w3.org/2000/svg"
 width="384.000000pt" height="413.000000pt" viewBox="0 0 384.000000 413.000000"
 preserveAspectRatio="xMidYMid meet">

<g transform="translate(0.000000,413.000000) scale(0.100000,-0.100000)"
fill="#000000" stroke="none">
<path d="M1780 3213 c-178 -18 -357 -71 -535 -159 -157 -77 -279 -163 -401
-282 -327 -320 -502 -788 -464 -1241 6 -69 14 -142 19 -161 l7 -35 27 51 c35
69 121 174 183 224 l51 41 6 102 c27 438 303 850 702 1047 139 69 260 106 398
123 l97 11 0 143 0 143 -27 -2 c-16 0 -44 -3 -63 -5z"/>
<path d="M2040 3206 c0 -21 26 -40 36 -25 4 7 3 9 -4 5 -6 -3 -13 -2 -17 3 -3
6 9 15 27 20 l33 9 -37 1 c-26 1 -38 -3 -38 -13z"/>
<path d="M2000 3191 c-6 -13 -10 -209 -10 -567 l0 -548 30 29 30 29 0 143 c0
81 -4 142 -9 139 -14 -9 -35 23 -36 57 0 22 6 36 20 45 19 12 19 13 -2 7 -21
-6 -23 -3 -23 34 0 36 3 41 23 42 21 1 21 1 -3 9 -25 7 -25 7 5 11 20 3 29 9
27 19 -2 8 5 20 15 28 17 13 17 14 -2 12 -11 -1 -27 -2 -35 -1 -12 1 -13 3 -1
10 7 5 10 14 7 20 -4 6 -11 9 -16 6 -17 -10 -20 33 -19 246 0 147 4 218 11
216 6 -1 12 6 13 16 4 23 -12 22 -25 -2z"/>
<path d="M2302 3155 c0 -16 2 -22 5 -12 2 9 2 23 0 30 -3 6 -5 -1 -5 -18z"/>
<path d="M2530 3085 c0 -3 18 -12 40 -21 43 -18 47 -23 28 -44 -7 -8 -3 -6 10
4 12 11 22 14 22 8 0 -7 7 -12 15 -12 9 0 28 -8 43 -17 15 -9 23 -12 17 -6
-21 23 -175 100 -175 88z"/>
<path d="M2540 3056 c0 -2 7 -7 16 -10 8 -3 12 -2 9 4 -6 10 -25 14 -25 6z"/>
<path d="M2569 3023 c-13 -16 -12 -17 4 -4 16 13 21 21 13 21 -2 0 -10 -8 -17
-17z"/>
<path d="M2430 2925 l0 -95 43 -21 c56 -29 147 -90 230 -157 l68 -54 51 34
c28 18 56 36 62 41 14 10 -85 101 -174 160 -142 95 -210 137 -222 137 -9 0 -8
4 2 11 11 8 12 12 2 16 -6 2 -9 10 -5 16 4 7 -1 6 -10 -2 -11 -9 -17 -10 -17
-2 0 6 -7 11 -15 11 -12 0 -15 -17 -15 -95z"/>
<path d="M2300 2958 c0 -58 -12 -74 -45 -62 -10 4 -15 0 -15 -11 0 -12 -5 -15
-19 -10 -11 3 -22 1 -26 -5 -3 -6 -11 -8 -16 -5 -20 13 -29 -54 -29 -219 0
-172 0 -173 -24 -186 -14 -7 -22 -18 -19 -26 3 -8 -1 -14 -11 -14 -14 0 -16
-18 -16 -140 l0 -141 -45 -48 c-52 -56 -58 -86 -18 -96 23 -5 36 3 111 77 l84
83 -4 158 -4 157 23 0 c28 0 41 -26 25 -51 -7 -11 -12 -63 -12 -131 l0 -113
36 37 37 36 -2 378 c-1 208 -4 380 -6 383 -3 2 -5 -21 -5 -51z"/>
<path d="M2518 2973 c6 -2 18 -2 25 0 6 3 1 5 -13 5 -14 0 -19 -2 -12 -5z"/>
<path d="M2860 2886 c0 -2 8 -10 18 -17 15 -13 16 -12 3 4 -13 16 -21 21 -21
13z"/>
<path d="M2905 2840 c6 -29 11 -34 18 -16 3 8 0 20 -8 26 -12 10 -13 8 -10
-10z"/>
<path d="M2036 2758 c3 -5 10 -6 15 -3 13 9 11 12 -6 12 -8 0 -12 -4 -9 -9z"/>
<path d="M1542 2638 c-9 -9 -12 -107 -12 -381 l0 -369 38 34 c21 19 53 43 70
54 18 10 32 21 32 24 0 3 -18 24 -40 45 l-40 39 0 112 c0 65 -4 115 -10 119
-15 9 -12 41 4 54 11 9 18 8 30 -4 18 -19 20 -31 6 -40 -6 -4 -10 -54 -10
-116 l0 -111 43 -43 c47 -47 60 -48 140 -16 36 14 38 64 3 100 -23 24 -37 72
-53 171 -3 19 -2 32 2 28 5 -4 14 -3 22 3 10 9 13 8 13 0 0 -7 5 -9 11 -5 20
12 28 -19 13 -54 -22 -55 -18 -107 10 -130 19 -15 25 -30 27 -66 2 -25 6 -46
11 -46 9 0 11 313 2 347 -4 12 -12 19 -19 17 -7 -3 -16 4 -20 15 -3 12 -10 19
-15 16 -4 -3 -6 5 -2 17 3 12 1 19 -4 15 -17 -10 -36 9 -37 37 -1 14 -5 26 -9
26 -4 0 -9 10 -11 23 -2 12 -3 4 0 -18 l4 -40 -21 40 c-19 36 -27 65 -29 103
-1 16 -132 17 -149 0z"/>
<path d="M1830 2633 c0 -4 5 -15 10 -23 8 -13 10 -13 10 2 0 9 -4 20 -10 23
-5 3 -10 3 -10 -2z"/>
<path d="M3147 2422 c-22 -24 -21 -29 6 -42 21 -11 21 -10 3 4 -19 15 -19 16
-1 36 10 11 16 20 13 20 -3 0 -12 -8 -21 -18z"/>
<path d="M3060 2350 l-54 -48 41 -88 c97 -208 128 -349 127 -584 -1 -155 -4
-186 -27 -272 -146 -547 -543 -908 -1075 -979 -159 -21 -369 -1 -532 52 -354
114 -666 420 -794 778 -15 40 -24 82 -21 92 6 16 89 96 431 412 l74 69 93 -86
93 -85 12 33 c7 18 12 39 12 47 0 20 -81 99 -102 99 -20 0 -42 26 -33 40 11
19 -55 80 -86 80 -36 0 -54 22 -39 50 16 30 51 22 70 -17 15 -31 177 -200 184
-192 2 2 11 18 19 35 16 31 16 32 -19 64 l-34 34 0 167 c0 210 9 199 -171 199
-167 0 -159 10 -159 -197 l0 -161 -164 -151 c-321 -296 -390 -383 -416 -529
-18 -103 13 -215 102 -361 244 -402 622 -668 1061 -748 131 -23 400 -23 532 1
641 116 1140 623 1255 1275 23 134 27 226 8 215 -10 -6 -10 -4 0 8 17 22 10
74 -10 70 -9 -1 -21 5 -28 13 -7 8 -25 15 -41 15 -23 0 -28 -5 -32 -27 -2 -16
-5 4 -6 44 -2 98 -36 271 -81 404 -23 68 -114 264 -126 272 -5 3 -34 -16 -64
-43z"/>
<path d="M2938 1964 c-13 -13 -35 -16 -102 -15 l-85 2 -68 -71 -68 -71 -115
-4 c-63 -2 -117 -4 -120 -5 -12 -6 101 -18 167 -19 l71 -1 74 75 74 75 82 0
c57 0 83 -4 89 -14 20 -34 73 -21 73 17 0 44 -41 62 -72 31z"/>
<path d="M1640 1960 c-8 -5 -12 -11 -9 -14 2 -3 11 -1 19 4 8 5 12 11 9 14 -2
3 -11 1 -19 -4z"/>
<path d="M3432 1930 c0 -14 2 -19 5 -12 2 6 2 18 0 25 -3 6 -5 1 -5 -13z"/>
<path d="M1591 1920 c-15 -10 -20 -20 -13 -24 6 -3 14 0 19 8 4 7 17 16 28 18
16 3 17 5 4 10 -8 3 -26 -2 -38 -12z"/>
<path d="M1697 1879 c-51 -27 -111 -90 -139 -147 -19 -39 -23 -63 -23 -137 0
-76 4 -99 26 -146 68 -144 242 -223 387 -175 148 49 233 167 235 322 0 56 -5
81 -27 127 -14 31 -28 57 -29 57 -2 0 -3 -9 -3 -20 0 -11 3 -20 6 -20 4 0 7
-7 7 -15 0 -27 -26 -24 -47 5 -14 20 -26 27 -37 23 -12 -5 -14 -3 -8 7 6 10 4
12 -7 7 -9 -3 -18 -3 -21 0 -3 3 -46 6 -95 6 -50 1 -88 5 -85 10 2 4 -4 7 -14
7 -11 0 -34 11 -53 25 -32 24 -34 24 -62 7 -16 -9 -38 -25 -49 -36 -11 -10
-23 -15 -27 -11 -4 4 -1 10 6 12 6 3 12 11 12 19 0 16 77 67 89 59 10 -6 22
20 14 29 -9 9 -14 7 -56 -15z m-67 -130 c0 -5 -4 -9 -10 -9 -5 0 -10 7 -10 16
0 8 5 12 10 9 6 -3 10 -10 10 -16z m253 -148 c31 -76 57 -141 57 -145 0 -3
-13 -6 -30 -6 -23 0 -33 7 -45 30 -15 28 -19 30 -75 30 -54 0 -60 -2 -72 -27
-10 -21 -22 -29 -47 -31 -25 -3 -32 0 -28 10 34 87 100 246 108 260 6 12 21
18 42 18 32 0 33 -1 90 -139z m157 -7 l0 -145 -32 3 -33 3 -3 143 -3 142 36 0
35 0 0 -146z m-432 124 c-2 -6 -10 -13 -16 -14 -7 -1 -8 0 -2 3 5 2 8 9 4 14
-3 5 0 9 6 9 7 0 10 -5 8 -12z m538 -43 c6 -24 0 -44 -10 -34 -11 11 -17 59
-7 59 6 0 13 -11 17 -25z"/>
<path d="M1776 1628 c-24 -57 -21 -68 19 -68 19 0 35 1 35 3 0 1 -9 25 -19 52
l-19 50 -16 -37z"/>
<path d="M3442 1870 c0 -14 2 -19 5 -12 2 6 2 18 0 25 -3 6 -5 1 -5 -13z"/>
<path d="M2030 1860 c35 -24 54 -31 30 -11 -14 11 -29 21 -35 21 -5 0 -3 -5 5
-10z"/>
<path d="M2715 1791 l-48 -50 -112 5 c-62 2 -123 0 -136 -5 -17 -7 13 -10 104
-10 125 -1 127 -1 117 -21 -10 -18 -21 -20 -125 -20 -65 0 -116 -4 -120 -10
-4 -6 36 -10 113 -10 l120 0 73 75 73 75 83 0 c49 0 83 4 83 10 0 6 -36 10
-89 10 l-89 0 -47 -49z"/>
<path d="M3453 1770 c0 -25 2 -35 4 -22 2 12 2 32 0 45 -2 12 -4 2 -4 -23z"/>
<path d="M3014 1755 c-5 -12 -27 -15 -113 -15 l-107 0 -59 -61 -60 -60 -102 7
c-87 5 -107 4 -128 -10 -14 -9 -25 -21 -25 -26 0 -6 87 -10 231 -10 181 0 229
3 223 13 -5 7 -1 7 12 -3 10 -8 16 -10 12 -6 -4 5 -1 14 8 21 13 9 -5 12 -82
14 -55 1 -101 4 -103 7 -3 2 15 25 39 49 l44 45 97 0 c74 0 100 -4 109 -15 16
-19 54 -19 70 0 20 24 -3 65 -35 65 -14 0 -28 -7 -31 -15z"/>
<path d="M2330 1739 c0 -5 5 -7 10 -4 6 3 10 8 10 11 0 2 -4 4 -10 4 -5 0 -10
-5 -10 -11z"/>
<path d="M2938 1623 c6 -2 18 -2 25 0 6 3 1 5 -13 5 -14 0 -19 -2 -12 -5z"/>
<path d="M2386 1543 c18 -2 40 -13 50 -24 16 -18 31 -19 238 -18 122 1 213 3
204 6 -28 7 -21 31 10 36 15 2 -99 4 -253 4 -154 0 -266 -2 -249 -4z"/>
<path d="M2975 1510 c-16 -7 -17 -9 -3 -9 9 -1 20 4 23 9 7 11 7 11 -20 0z"/>
<path d="M2904 1435 c-5 -13 -51 -15 -330 -15 -192 0 -324 -4 -324 -9 0 -16
26 -17 338 -13 276 4 304 3 316 -13 8 -11 22 -16 41 -13 25 2 31 8 33 32 2 16
-2 32 -10 37 -21 14 -58 10 -64 -6z"/>
<path d="M995 1411 c-9 -15 36 -41 72 -41 18 0 44 5 58 12 19 8 32 8 53 -1 23
-10 25 -10 10 2 -10 8 -18 17 -18 20 0 4 8 4 18 1 14 -5 15 -4 2 5 -18 13
-187 15 -195 2z"/>
<path d="M1135 1359 c-4 -6 -5 -12 -2 -15 2 -3 7 2 10 11 7 17 1 20 -8 4z"/>
<path d="M1190 1337 c0 -31 -49 -36 -75 -7 -19 21 -62 29 -50 9 4 -6 14 -8 22
-5 8 4 11 2 7 -5 -3 -6 11 -30 33 -52 43 -45 176 -210 348 -432 59 -77 113
-145 119 -152 8 -9 10 32 8 148 l-3 160 71 74 c39 40 68 75 63 78 -26 15 -100
-23 -87 -45 3 -4 1 -7 -4 -6 -5 2 -27 -14 -50 -34 -35 -32 -42 -44 -42 -75 0
-20 5 -51 12 -69 12 -35 0 -64 -28 -64 -21 0 -46 32 -41 52 4 12 -12 36 -49
76 -29 31 -54 66 -55 77 0 11 -1 41 -2 67 -1 70 -42 104 -124 107 -25 1 -48
30 -58 74 -6 24 -4 27 16 28 23 0 23 1 4 9 -31 13 -35 12 -35 -13z m135 -143
c24 -25 15 -58 -17 -62 -36 -4 -53 26 -32 56 18 26 27 27 49 6z"/>
<path d="M1290 1166 c0 -9 7 -16 16 -16 9 0 14 5 12 12 -6 18 -28 21 -28 4z"/>
<path d="M1260 1356 c0 -2 8 -10 18 -17 15 -13 16 -12 3 4 -13 16 -21 21 -21
13z"/>
<path d="M1305 1329 c-4 -6 -5 -12 -2 -15 2 -3 7 2 10 11 7 17 1 20 -8 4z"/>
<path d="M1335 1310 c-3 -5 -1 -10 4 -10 6 0 11 5 11 10 0 6 -2 10 -4 10 -3 0
-8 -4 -11 -10z"/>
<path d="M2216 1297 c-27 -27 -34 -61 -15 -73 7 -4 20 4 30 17 l18 24 273 3
c150 2 277 7 283 11 18 15 85 23 85 11 0 -6 -5 -8 -12 -4 -7 4 -8 3 -4 -5 4
-6 13 -8 19 -5 8 5 8 3 0 -7 -7 -7 -13 -18 -13 -24 0 -5 5 -3 10 5 7 12 9 10
8 -7 -2 -14 -7 -19 -17 -15 -8 3 -12 1 -8 -5 4 -6 -7 -9 -31 -7 -20 1 -38 7
-40 13 -3 8 -92 11 -276 11 -252 0 -274 -1 -289 -18 -10 -10 -14 -22 -10 -25
3 -4 47 -7 98 -7 l91 0 49 -50 49 -50 142 0 c116 0 144 -3 154 -16 8 -9 25
-14 44 -12 28 3 31 6 31 38 0 31 -3 35 -29 38 -19 2 -32 -2 -38 -12 -8 -13
-31 -16 -146 -16 l-138 0 -39 40 -39 40 210 0 c192 0 212 2 227 18 20 22 22
75 3 91 -9 7 -119 13 -334 17 l-320 7 -26 -26z"/>
<path d="M1240 1291 c0 -22 20 -31 67 -29 27 1 31 4 22 15 -7 7 -20 11 -30 8
-13 -4 -19 -1 -19 9 0 9 -9 16 -20 16 -13 0 -20 -7 -20 -19z"/>
<path d="M1360 1270 c-11 -7 -11 -10 -2 -10 7 0 11 -4 8 -8 -3 -5 37 -50 88
-101 l92 -92 20 22 c10 12 14 19 7 16 -6 -4 -14 -3 -17 2 -3 5 -16 7 -29 4
-12 -3 -18 -2 -14 3 4 4 -3 14 -15 22 l-23 13 22 -4 c19 -4 21 -2 14 11 -22
41 -64 69 -109 71 -8 1 -12 7 -9 14 2 6 11 11 18 9 9 -2 7 4 -5 17 -22 24 -25
25 -46 11z m34 -21 c-8 -14 -21 -11 -21 5 0 8 6 12 14 9 7 -3 10 -9 7 -14z"/>
<path d="M1408 1108 c4 -48 10 -59 58 -110 30 -31 54 -56 55 -55 0 1 3 22 5
47 4 44 3 47 -59 108 l-64 64 5 -54z"/>
<path d="M1920 1150 c-8 -5 -12 -12 -9 -15 4 -3 12 1 19 10 14 17 11 19 -10 5z"/>
<path d="M1775 1106 c-11 -17 -30 -35 -43 -41 -18 -8 -22 -18 -22 -58 0 -27 5
-57 11 -68 15 -29 2 -59 -26 -59 -31 0 -43 35 -21 59 10 11 16 36 16 71 l0 53
-30 -29 -29 -29 -1 -160 0 -160 88 135 c48 74 105 162 125 195 21 33 44 69 52
80 13 19 13 21 -4 22 -19 2 -103 -78 -113 -107 -4 -12 -8 -12 -19 -3 -10 10
-4 22 30 63 24 28 40 54 37 57 -3 4 -6 3 -6 -2 0 -4 -6 -3 -12 3 -10 7 -18 1
-33 -22z"/>
<path d="M1590 1120 c-9 -6 -10 -10 -3 -10 6 0 15 5 18 10 8 12 4 12 -15 0z"/>
<path d="M1734 1098 l-29 -33 33 29 c30 28 37 36 29 36 -2 0 -16 -15 -33 -32z"/>
<path d="M2155 1080 c-3 -5 -1 -10 4 -10 6 0 11 5 11 10 0 6 -2 10 -4 10 -3 0
-8 -4 -11 -10z"/>
<path d="M2030 1004 c-41 -16 -54 -79 -22 -107 17 -15 58 -17 385 -17 319 0
368 2 381 16 20 20 21 78 1 94 -10 9 -111 13 -372 16 -197 2 -365 1 -373 -2z
m720 -43 c21 -41 -25 -78 -59 -47 -15 14 -56 16 -292 17 -151 1 -287 4 -304 8
-16 4 110 11 280 15 171 4 314 12 320 17 15 15 44 10 55 -10z"/>
<path d="M1682 918 c6 -18 28 -21 28 -4 0 9 -7 16 -16 16 -9 0 -14 -5 -12 -12z"/>
<path d="M1515 909 c-4 -6 -4 -13 -1 -16 3 -4 6 -1 6 5 0 7 4 12 10 12 5 0 6
-7 3 -17 -4 -11 -3 -14 5 -9 7 4 12 14 12 22 0 16 -26 19 -35 3z"/>
</g>
</svg>
