<?xml version="1.0" standalone="no"?>
<!DOCTYPE svg PUBLIC "-//W3C//DTD SVG 20010904//EN"
 "http://www.w3.org/TR/2001/REC-SVG-20010904/DTD/svg10.dtd">
<svg version="1.0" xmlns="http://www.w3.org/2000/svg"
 width="767.000000pt" height="325.000000pt" viewBox="0 0 767.000000 325.000000"
 preserveAspectRatio="xMidYMid meet">

<g transform="translate(0.000000,325.000000) scale(0.100000,-0.100000)"
fill="#000000" stroke="none">
<path d="M3725 2473 c-125 -17 -254 -68 -363 -142 -242 -164 -391 -476 -367
-767 9 -98 17 -117 35 -75 7 17 36 56 65 86 53 55 54 56 64 143 21 169 88 304
210 421 90 85 239 163 338 176 111 15 103 7 103 91 l0 74 -27 -1 c-16 -1 -41
-4 -58 -6z"/>
<path d="M3896 2471 c-3 -4 6 -6 19 -3 14 2 25 6 25 8 0 8 -39 4 -44 -5z"/>
<path d="M4138 2382 c-25 -12 -28 -19 -28 -63 0 -27 4 -49 8 -49 12 0 130 -78
153 -101 24 -24 26 -24 68 2 l34 20 -24 17 c-13 9 -28 22 -34 28 -12 15 -145
104 -154 104 -4 0 -7 10 -8 21 -1 12 1 19 4 15 3 -3 14 -1 24 4 13 8 20 6 27
-6 6 -11 12 -13 16 -6 15 25 -46 35 -86 14z"/>
<path d="M4029 2338 c0 -2 -2 -11 -4 -22 -2 -10 -9 -24 -16 -30 -9 -8 -10 -8
-5 2 4 7 1 12 -8 12 -24 0 -39 -38 -38 -99 0 -31 -5 -62 -10 -68 -7 -9 -7 -13
-1 -13 13 0 10 -26 -5 -63 -7 -16 -12 -56 -12 -89 0 -50 -5 -67 -25 -94 -50
-65 -21 -74 43 -13 l44 41 -3 87 c-3 70 -1 86 11 86 12 0 14 -14 11 -73 -3
-63 -1 -71 13 -66 24 9 30 47 22 158 -4 55 -7 134 -8 174 0 39 -2 72 -4 72 -2
0 -4 -1 -5 -2z"/>
<path d="M3882 2190 c-1 -47 2 -70 7 -61 5 8 7 20 4 28 -3 7 2 13 11 13 9 0
16 5 16 10 0 6 -3 9 -7 8 -5 -2 -8 2 -8 7 0 6 3 9 7 8 4 -2 5 4 1 13 -4 12 -8
13 -14 3 -5 -8 -9 -2 -12 17 -2 16 -5 -5 -5 -46z"/>
<path d="M3645 2166 c-10 -8 -15 -58 -20 -203 -4 -106 -3 -193 1 -193 5 0 23
11 39 24 l30 24 -21 24 c-28 30 -41 181 -16 176 12 -2 15 -18 14 -78 -2 -70
-1 -76 24 -93 33 -25 74 -16 74 16 0 13 -4 27 -9 32 -5 6 -12 32 -16 58 -6 44
-5 48 12 45 14 -3 17 -11 15 -44 -2 -28 2 -45 12 -53 14 -12 16 -5 16 63 0 50
-4 76 -11 76 -16 0 -38 31 -39 53 0 9 -7 17 -15 17 -10 0 -15 10 -15 29 0 24
-5 29 -30 33 -17 3 -37 0 -45 -6z"/>
<path d="M3876 1997 c-8 -116 -4 -146 14 -117 11 18 12 138 1 195 -6 33 -9 19
-15 -78z"/>
<path d="M4463 2013 c-29 -20 -29 -27 7 -116 112 -281 51 -569 -166 -779 -65
-63 -146 -112 -246 -151 -79 -29 -90 -31 -223 -31 -129 0 -145 2 -210 28 -187
74 -325 196 -403 357 -55 114 -61 99 93 245 75 71 138 131 140 133 3 2 26 -17
52 -42 35 -34 50 -43 60 -36 19 16 12 31 -29 64 -21 16 -38 34 -38 41 0 16
-34 44 -53 44 -9 0 -17 6 -17 14 0 34 23 23 76 -34 46 -49 59 -58 71 -49 12
10 11 15 -6 33 -15 17 -20 39 -23 113 -1 50 -6 94 -9 98 -9 9 -143 10 -157 1
-8 -5 -12 -38 -12 -98 l0 -91 -82 -76 c-207 -192 -232 -226 -232 -321 -1 -164
216 -415 449 -520 192 -86 469 -86 662 1 67 30 181 102 223 141 49 45 128 144
160 198 73 124 120 286 120 411 0 52 -2 59 -20 59 -11 0 -23 -1 -27 -2 -5 -2
-11 20 -15 47 -11 86 -44 197 -79 267 -19 37 -36 68 -39 67 -3 0 -15 -7 -27
-16z"/>
<path d="M4395 1800 c-3 -5 -29 -10 -57 -10 -45 0 -54 -4 -85 -37 -29 -33 -41
-39 -91 -44 l-57 -6 55 -2 c53 -1 58 1 95 40 l39 41 63 -5 c67 -5 75 -3 66 19
-6 16 -19 18 -28 4z"/>
<path d="M3670 1780 c-9 -6 -10 -10 -3 -10 6 0 15 5 18 10 8 12 4 12 -15 0z"/>
<path d="M3687 1730 c-38 -30 -58 -78 -58 -137 -1 -104 67 -173 171 -173 83 0
136 39 165 120 16 45 13 104 -5 115 -6 3 -7 -2 -4 -12 4 -12 -2 -9 -19 10
l-25 27 -6 -22 c-3 -13 -6 -49 -6 -81 0 -50 -2 -58 -17 -55 -15 3 -19 18 -23
88 l-5 85 -40 3 c-22 2 -43 9 -47 15 -4 7 -8 8 -8 2 0 -5 -4 -5 -8 2 -6 10
-14 9 -36 -3 -37 -19 -46 -10 -15 15 32 27 19 27 -14 1z m121 -103 c32 -68 39
-107 18 -107 -9 0 -19 7 -22 15 -8 20 -64 19 -79 -2 -8 -10 -19 -14 -30 -10
-12 5 -14 11 -7 20 5 6 15 30 22 52 30 97 62 108 98 32z"/>
<path d="M3756 1605 c-9 -23 -8 -25 9 -25 17 0 19 9 6 28 -7 11 -10 10 -15 -3z"/>
<path d="M4270 1705 c-21 -22 -33 -25 -99 -27 l-76 -2 70 -6 c79 -6 69 -18
-20 -23 l-60 -3 67 -2 c66 -2 68 -1 104 37 30 34 44 41 83 44 l46 3 -46 2
c-37 2 -50 -3 -69 -23z"/>
<path d="M3875 1690 c-3 -5 1 -10 9 -10 9 0 16 5 16 10 0 6 -4 10 -9 10 -6 0
-13 -4 -16 -10z"/>
<path d="M4431 1676 c-9 -11 -8 -15 5 -20 20 -8 39 7 30 23 -10 15 -21 14 -35
-3z"/>
<path d="M4279 1643 l-24 -28 25 22 c14 12 39 23 55 26 l30 4 -31 2 c-22 1
-37 -7 -55 -26z"/>
<path d="M4115 1600 c-8 -13 235 -13 255 0 10 7 -28 10 -117 10 -77 0 -134 -4
-138 -10z"/>
<path d="M4115 1560 c4 -6 55 -10 121 -10 69 0 114 4 114 10 0 6 -47 10 -121
10 -77 0 -118 -4 -114 -10z"/>
<path d="M4375 1511 c-4 -7 -74 -12 -188 -13 l-182 -2 185 -6 c102 -3 192 -7
200 -10 10 -3 15 2 15 14 0 22 -20 33 -30 17z"/>
<path d="M3350 1485 c13 -12 20 -13 55 0 l40 14 -55 1 c-48 0 -53 -2 -40 -15z"/>
<path d="M3425 1408 c43 -52 65 -73 51 -50 -9 14 12 35 28 29 22 -9 20 -36 -4
-45 -18 -7 -14 -14 40 -82 33 -41 74 -91 90 -110 l29 -35 0 86 c1 81 2 87 31
114 46 44 36 52 -12 9 -41 -37 -56 -72 -35 -85 14 -10 1 -39 -17 -39 -8 0 -23
16 -32 35 -9 20 -25 40 -35 46 -14 7 -19 21 -19 52 0 48 -13 67 -46 67 -13 0
-31 10 -41 23 -10 13 -24 22 -31 19 -7 -2 -20 2 -30 10 -9 7 6 -13 33 -44z"/>
<path d="M4000 1430 c-18 -18 -19 -23 -6 -35 9 -9 34 -15 63 -15 42 0 54 -5
78 -30 26 -27 35 -30 84 -29 l56 1 -53 9 c-58 10 -92 24 -92 39 0 6 48 10 114
10 63 0 117 4 120 8 3 5 -9 8 -27 8 -120 0 -327 10 -327 16 0 4 66 8 148 9
179 1 235 12 112 22 -47 4 -122 7 -167 7 -70 0 -86 -3 -103 -20z"/>
<path d="M3470 1430 c0 -6 7 -10 15 -10 8 0 15 2 15 4 0 2 -7 6 -15 10 -8 3
-15 1 -15 -4z"/>
<path d="M3566 1378 c3 -7 21 -25 39 -41 27 -22 34 -24 39 -12 3 10 2 13 -4
10 -6 -4 -24 7 -41 24 -33 33 -42 38 -33 19z"/>
<path d="M3560 1329 c0 -15 12 -37 30 -54 28 -27 30 -27 30 -7 0 11 -13 36
-30 54 l-30 32 0 -25z"/>
<path d="M3793 1322 c-13 -15 -23 -30 -23 -34 0 -5 -7 -8 -15 -8 -13 0 -13 4
2 26 17 26 17 27 -4 13 -26 -15 -36 -49 -27 -85 6 -22 4 -25 -12 -22 -16 3
-18 11 -16 43 3 30 1 37 -8 29 -7 -7 -10 -40 -8 -89 l3 -78 62 99 c78 125 97
169 46 106z"/>
<path d="M4317 1339 c-18 -10 -18 -12 2 -26 25 -17 41 -10 41 18 0 21 -15 24
-43 8z"/>
<path d="M3881 1262 c-6 -11 -6 -24 0 -35 9 -15 31 -17 214 -17 196 0 204 1
210 20 15 46 -4 50 -216 50 -180 0 -199 -2 -208 -18z m409 -21 c0 -17 -8 -18
-92 -14 -51 3 -131 8 -178 13 -79 7 -75 7 70 9 85 1 162 5 170 10 18 12 30 5
30 -18z"/>
<path d="M2983 600 c-27 -11 -39 -50 -23 -79 12 -24 68 -29 88 -9 13 13 16 57
4 74 -11 17 -44 24 -69 14z"/>
<path d="M2550 314 l0 -255 48 3 47 3 3 108 3 107 104 0 105 0 0 40 0 39 -102
3 -103 3 -3 63 -3 62 116 0 115 0 0 40 0 40 -165 0 -165 0 0 -256z"/>
<path d="M3532 528 l-2 -38 78 1 c42 1 67 4 54 6 -19 4 -21 7 -11 19 10 12 9
13 -5 8 -9 -3 -16 -9 -16 -13 0 -4 -17 -8 -37 -8 -28 -1 -32 1 -15 6 23 6 28
27 5 25 -6 -1 -9 5 -6 12 3 9 11 11 21 5 10 -4 28 -5 42 -1 24 6 24 7 4 13
-11 4 -41 7 -66 6 -45 -2 -45 -2 -46 -41z"/>
<path d="M3674 563 c10 -10 46 -11 46 -1 0 4 -12 8 -27 8 -14 0 -23 -3 -19 -7z"/>
<path d="M3735 560 c-3 -5 -2 -10 4 -10 5 0 13 5 16 10 3 6 2 10 -4 10 -5 0
-13 -4 -16 -10z"/>
<path d="M3770 562 c0 -4 15 -7 33 -7 17 0 31 -5 30 -11 -1 -6 4 -11 12 -11 7
0 11 7 7 15 -3 9 0 13 8 10 24 -8 23 -28 -2 -37 -20 -8 -17 -10 22 -12 l45 -2
-50 -7 -50 -7 57 -1 c57 -2 57 -2 48 22 -5 13 -6 27 -3 30 4 3 1 6 -5 6 -7 0
-12 -5 -12 -12 0 -6 -10 -2 -23 10 -17 16 -36 22 -70 22 -26 0 -47 -3 -47 -8z"/>
<path d="M4770 540 c0 -33 11 -38 30 -15 7 8 17 12 23 8 6 -3 7 -1 3 6 -6 9
-11 9 -22 0 -19 -16 -18 -4 2 15 14 15 13 16 -10 16 -22 0 -26 -4 -26 -30z"/>
<path d="M4830 566 c0 -2 8 -10 18 -17 15 -13 16 -12 3 4 -13 16 -21 21 -21
13z"/>
<path d="M4844 497 c-5 -14 1 -66 9 -73 2 -2 5 16 5 41 2 44 -4 58 -14 32z"/>
<path d="M3691 450 c0 -33 1 -34 10 -11 6 16 6 28 -1 35 -7 7 -10 -1 -9 -24z"/>
<path d="M3735 459 c-11 -4 -14 -8 -7 -8 19 -1 43 -27 34 -36 -4 -5 -1 -5 6
-1 9 6 10 11 3 20 -6 7 -8 15 -5 18 10 11 -11 16 -31 7z"/>
<path d="M2957 443 c-3 -5 -5 -92 -4 -193 l2 -185 53 -3 52 -3 -2 193 -3 193
-47 3 c-25 2 -49 -1 -51 -5z"/>
<path d="M3150 255 l0 -196 48 3 47 3 5 130 c3 72 9 136 13 143 27 42 110 32
128 -15 5 -13 9 -78 9 -144 l0 -119 50 0 50 0 0 133 c0 148 -9 193 -44 226
-47 44 -161 37 -187 -10 -14 -27 -25 -23 -24 9 0 25 -3 27 -47 30 l-48 3 0
-196z"/>
<path d="M4074 438 c-4 -6 1 -17 11 -25 11 -7 13 -13 6 -13 -16 0 -42 26 -34
34 4 3 2 6 -3 6 -5 0 -15 -9 -22 -20 -10 -16 -10 -20 0 -20 7 0 5 -5 -5 -11
-14 -8 -22 -8 -30 1 -9 10 -9 11 2 5 10 -5 12 -4 7 4 -9 14 -26 5 -26 -14 0
-7 -5 -15 -12 -17 -24 -8 5 -28 41 -28 26 0 38 4 38 14 0 8 -6 12 -14 9 -7 -3
-13 -1 -13 5 0 5 7 12 15 16 9 3 12 12 8 23 -6 17 -5 17 14 0 25 -22 100 -33
83 -12 -8 9 -5 14 9 18 13 3 21 -1 24 -12 3 -10 5 -8 6 7 1 19 5 22 24 17 19
-5 20 -4 4 5 -9 6 -21 9 -26 5 -5 -3 -12 -1 -16 5 -9 14 -82 13 -91 -2z m86
-8 c0 -13 -30 -13 -50 0 -11 7 -7 10 18 10 17 0 32 -4 32 -10z"/>
<path d="M4488 443 c-10 -2 -18 -10 -18 -16 0 -7 -5 -6 -11 3 -8 11 -12 12
-16 2 -2 -6 -9 -9 -15 -6 -5 3 -12 -3 -15 -15 -3 -11 -9 -18 -14 -16 -12 8
-29 -29 -28 -62 0 -15 3 -22 6 -15 4 10 8 10 19 2 10 -9 16 -5 27 22 17 39 13
49 -9 22 -8 -10 -13 -13 -9 -6 3 6 0 12 -7 12 -8 0 -6 5 5 11 9 5 17 16 17 24
0 9 8 12 28 9 34 -6 52 -22 20 -19 -13 1 -15 0 -5 -2 9 -2 15 -8 13 -12 -3 -4
11 -5 30 -3 34 4 49 22 17 22 -9 0 -14 3 -10 6 3 4 19 2 34 -3 26 -9 28 -8 30
14 1 18 -2 22 -10 14 -6 -6 -29 -11 -51 -11 -34 1 -38 2 -23 11 10 6 29 8 43
5 14 -4 24 -2 24 4 0 10 -39 12 -72 3z"/>
<path d="M4587 425 c-4 -8 -3 -16 1 -19 4 -3 9 4 9 15 2 23 -3 25 -10 4z"/>
<path d="M4776 433 c-10 -11 -6 -83 4 -83 6 0 13 14 17 32 5 27 7 29 14 13 5
-14 8 -15 8 -5 1 17 -34 52 -43 43z"/>
<path d="M4991 427 c-6 -8 -8 -17 -4 -20 3 -4 -1 -7 -10 -7 -9 0 -18 -4 -21
-9 -3 -4 6 -6 21 -3 22 4 25 2 19 -13 -6 -18 -6 -18 12 -2 10 9 25 17 33 17
12 0 11 -2 -1 -10 -8 -5 -10 -10 -4 -10 17 0 36 27 32 46 -4 24 -48 26 -48 3
0 -10 -4 -20 -9 -23 -4 -3 -7 6 -5 19 3 29 1 30 -15 12z m66 -12 c0 -17 -13
-20 -21 -6 -4 5 0 12 6 14 7 3 13 6 14 6 0 1 1 -6 1 -14z"/>
<path d="M4645 397 c16 -25 16 -25 -4 -20 -12 3 -18 9 -15 14 3 5 -2 6 -12 2
-15 -5 -15 -7 0 -15 9 -5 16 -14 16 -20 0 -7 -4 -7 -13 1 -14 11 -27 6 -27
-11 0 -9 35 -10 67 -2 21 6 22 8 8 34 -8 16 -20 32 -26 36 -6 3 -4 -5 6 -19z"/>
<path d="M4224 402 c3 -5 0 -13 -6 -15 -9 -4 -10 -6 -1 -6 17 -1 25 16 12 25
-7 4 -9 3 -5 -4z"/>
<path d="M3694 305 c0 -50 1 -71 3 -48 2 23 2 64 0 90 -2 26 -3 8 -3 -42z"/>
<path d="M4846 365 c-3 -8 -1 -25 4 -37 8 -20 9 -18 9 15 1 39 -3 47 -13 22z"/>
<path d="M4904 325 c-19 -19 -34 -35 -32 -36 1 0 13 -2 25 -3 19 -2 21 0 10
13 -10 12 -9 13 2 6 27 -16 69 -15 82 3 11 14 11 15 -1 5 -17 -15 -34 -17 -25
-3 3 6 -1 13 -10 16 -9 4 -14 13 -11 20 8 22 -1 17 -40 -21z m47 -12 c2 1 1
-2 -4 -8 -5 -6 -11 -4 -17 5 -15 23 -11 37 4 18 7 -10 15 -17 17 -15z"/>
<path d="M4253 334 c-3 -9 0 -20 7 -24 7 -4 10 -17 7 -29 -3 -12 -1 -24 4 -27
5 -3 9 18 9 45 0 49 -14 68 -27 35z"/>
<path d="M4150 300 c-14 -4 -41 -8 -61 -9 -24 -1 -36 -6 -36 -16 0 -8 4 -12 9
-9 5 3 21 7 36 9 25 3 25 2 7 -12 -19 -15 -19 -15 5 -10 24 6 24 5 5 -9 -18
-13 -17 -14 15 -8 58 10 68 15 45 24 -12 4 -23 3 -28 -4 -6 -7 -7 -6 -4 4 2 9
13 14 27 12 20 -3 22 -1 12 10 -6 8 -9 18 -5 21 7 8 7 8 -27 -3z"/>
<path d="M4505 281 c7 -22 -10 -30 -18 -8 -4 7 -6 6 -6 -4 -1 -9 -8 -20 -17
-23 -14 -5 -15 -4 -5 8 14 17 7 36 -12 35 -9 0 -9 -2 1 -6 6 -2 12 -9 12 -14
0 -4 -6 -6 -13 -3 -8 3 -14 -2 -14 -10 0 -19 26 -29 41 -17 6 5 28 12 48 16
21 4 35 11 32 16 -3 5 1 7 8 5 7 -3 27 -7 43 -10 l30 -6 -25 14 c-14 7 -45 17
-69 21 -41 7 -43 6 -36 -14z"/>
<path d="M4015 270 c-3 -6 1 -7 9 -4 18 7 21 14 7 14 -6 0 -13 -4 -16 -10z"/>
<path d="M4940 267 c0 -18 47 -40 55 -27 4 6 -1 13 -9 16 -9 3 -13 10 -10 15
3 5 -4 9 -15 9 -12 0 -21 -6 -21 -13z"/>
<path d="M4770 228 c0 -39 1 -41 16 -26 11 11 14 25 10 42 -10 40 -26 31 -26
-16z"/>
<path d="M3971 246 c-7 -8 -14 -27 -16 -43 -2 -15 -2 -22 1 -15 4 9 10 10 19
2 9 -8 14 -6 19 5 4 12 10 14 25 6 16 -9 18 -8 14 8 -3 11 -14 19 -28 19 -16
0 -22 -5 -18 -14 3 -8 1 -14 -5 -14 -6 0 -9 8 -7 18 1 9 10 16 19 16 13 -2 14
1 5 12 -14 17 -14 17 -28 0z"/>
<path d="M4046 225 c-3 -8 -1 -15 4 -15 13 0 22 18 11 24 -5 3 -11 -1 -15 -9z"/>
<path d="M4265 210 c-3 -5 -1 -10 4 -10 6 0 11 5 11 10 0 6 -2 10 -4 10 -3 0
-8 -4 -11 -10z"/>
<path d="M3762 190 c0 -14 2 -19 5 -12 2 6 2 18 0 25 -3 6 -5 1 -5 -13z"/>
<path d="M4934 194 c1 -8 8 -20 16 -27 12 -10 12 -9 2 5 -10 13 -10 17 0 20 8
3 7 6 -4 10 -10 4 -15 2 -14 -8z"/>
<path d="M4013 182 c10 -10 14 -22 10 -27 -5 -4 -2 -5 5 -1 11 6 10 12 -4 27
-9 10 -19 19 -22 19 -3 0 2 -8 11 -18z"/>
<path d="M4602 191 c-9 -5 -11 -17 -6 -35 5 -22 9 -24 21 -15 10 9 11 14 3 19
-8 5 -7 9 4 13 8 3 17 1 20 -6 2 -7 5 -4 5 6 1 14 -4 17 -20 12 -15 -5 -19 -4
-15 4 8 13 6 14 -12 2z"/>
<path d="M4665 190 c3 -5 8 -10 11 -10 2 0 4 5 4 10 0 6 -5 10 -11 10 -5 0 -7
-4 -4 -10z"/>
<path d="M4838 193 c7 -3 16 -2 19 1 4 3 -2 6 -13 5 -11 0 -14 -3 -6 -6z"/>
<path d="M3742 170 c0 -14 2 -19 5 -12 2 6 2 18 0 25 -3 6 -5 1 -5 -13z"/>
<path d="M4270 174 c0 -8 -5 -12 -11 -8 -14 8 -8 -38 6 -49 6 -5 -9 -7 -32 -5
-39 3 -43 1 -43 -19 0 -19 5 -23 30 -23 17 0 30 5 30 11 0 5 -4 8 -8 5 -4 -2
-14 -1 -22 5 -12 7 -10 9 9 9 13 0 29 -8 36 -17 10 -14 13 -6 14 45 0 34 -1
62 -4 62 -3 0 -5 -7 -5 -16z"/>
<path d="M4782 178 c-7 -7 -12 -19 -12 -27 0 -12 2 -13 9 -3 6 10 10 10 21 -2
13 -16 35 -12 24 5 -3 5 -9 7 -14 4 -5 -3 -12 0 -16 6 -3 6 0 15 7 20 8 5 9 9
4 9 -6 0 -16 -5 -23 -12z"/>
<path d="M4379 172 c-12 -5 -14 -13 -8 -27 6 -16 8 -17 8 -3 1 9 6 20 13 24 6
4 8 3 4 -4 -6 -11 11 -28 20 -19 6 6 -6 37 -15 36 -3 0 -13 -3 -22 -7z"/>
<path d="M4844 155 c0 -14 4 -25 8 -25 4 0 7 9 5 20 -5 29 -13 33 -13 5z"/>
<path d="M4180 150 c6 -11 12 -20 14 -20 2 0 2 9 -1 20 -3 11 -9 20 -15 20 -5
0 -4 -9 2 -20z"/>
<path d="M4200 163 c0 -15 18 -35 23 -27 3 5 -1 15 -9 22 -8 7 -14 9 -14 5z"/>
<path d="M5044 156 c-3 -9 -4 -25 -1 -36 6 -23 -8 -27 -16 -6 -6 14 -47 18
-47 5 0 -12 39 -54 40 -42 0 6 9 10 20 8 11 -2 18 0 15 6 -4 5 -1 9 5 9 6 0 8
5 4 12 -5 8 -2 9 9 5 16 -6 16 -4 0 21 -9 15 -18 29 -20 31 -1 2 -5 -4 -9 -13z"/>
<path d="M3950 144 c0 -12 11 -33 25 -48 22 -23 28 -25 47 -15 13 6 25 13 26
15 8 6 -44 49 -63 51 -16 2 -17 1 -5 -6 8 -5 18 -7 22 -5 15 9 8 -3 -9 -17
-14 -12 -16 -12 -8 0 6 11 4 13 -9 8 -9 -4 -15 -3 -12 1 2 4 1 14 -5 22 -7 12
-9 11 -9 -6z"/>
<path d="M4661 144 c0 -11 3 -14 6 -6 3 7 2 16 -1 19 -3 4 -6 -2 -5 -13z"/>
<path d="M3710 122 c0 -5 7 -15 15 -22 8 -7 15 -9 15 -6 0 4 -7 14 -15 22 -8
9 -15 11 -15 6z"/>
<path d="M4100 115 c-11 -13 -10 -14 3 -10 8 4 18 2 21 -3 3 -5 -7 -12 -24
-14 -16 -2 -27 -1 -24 4 10 16 -13 7 -31 -12 -18 -20 -17 -20 13 -20 19 0 32
5 32 13 0 8 2 9 8 1 9 -14 42 -3 61 20 14 17 7 21 -28 17 -7 -2 -10 2 -6 8 10
17 -11 13 -25 -4z"/>
<path d="M4424 116 c-3 -9 -12 -12 -22 -8 -15 5 -15 4 -3 -11 8 -10 16 -15 19
-13 2 3 14 -1 26 -9 23 -17 131 -21 121 -5 -3 5 -15 10 -26 10 -11 0 -17 5
-14 10 9 15 -2 12 -31 -6 -20 -13 -28 -14 -37 -5 -9 10 -8 11 7 5 13 -5 17 -4
12 4 -5 8 -2 10 8 6 9 -3 16 -1 16 5 0 6 -4 12 -10 12 -5 1 -16 2 -22 3 -7 1
-19 -3 -27 -8 -12 -9 -13 -7 -8 7 3 9 4 17 1 17 -2 0 -7 -6 -10 -14z"/>
<path d="M4495 120 c3 -5 12 -10 20 -10 8 0 17 5 20 10 4 6 -5 10 -20 10 -15
0 -24 -4 -20 -10z"/>
<path d="M4617 108 c2 -5 -4 -8 -14 -8 -17 -1 -17 -1 -1 -11 12 -7 24 -6 38 1
27 14 25 25 -4 25 -13 0 -22 -3 -19 -7z"/>
<path d="M4777 104 c-4 -4 -7 -13 -7 -21 0 -18 58 -14 65 5 3 9 0 10 -12 3
-12 -6 -20 -5 -28 5 -6 9 -14 12 -18 8z"/>
<path d="M3695 90 c3 -5 11 -10 16 -10 6 0 7 5 4 10 -3 6 -11 10 -16 10 -6 0
-7 -4 -4 -10z"/>
<path d="M4846 85 c-3 -8 -1 -15 4 -15 6 0 10 7 10 15 0 8 -2 15 -4 15 -2 0
-6 -7 -10 -15z"/>
<path d="M5075 90 c-3 -6 1 -7 9 -4 18 7 21 14 7 14 -6 0 -13 -4 -16 -10z"/>
</g>
</svg>
